<svg xmlns="http://www.w3.org/2000/svg" viewBox="0 0 108.82 90.61"><defs><style>.cls-1{fill:none;stroke:#fff;stroke-miterlimit:10;stroke-width:3px;}</style></defs><title>Asset 13</title><g id="Layer_2" data-name="Layer 2"><g id="Layer_1-2" data-name="Layer 1"><path class="cls-1" d="M77.31,1.5h0a29.74,29.74,0,0,0-22.9,10.58A29.33,29.33,0,0,0,31.5,1.5a30,30,0,0,0-30,30c0,28.4,49.56,56.12,51.57,57.2a2.41,2.41,0,0,0,2.68,0c2-1.07,51.57-28.4,51.57-57.2A30,30,0,0,0,77.31,1.5ZM54.41,81.73C47,77.37,8.86,54.14,8.86,32.08A23.61,23.61,0,0,1,32.47,8.47,23.09,23.09,0,0,1,52.23,19.12a2.69,2.69,0,0,0,4.36,0,23.61,23.61,0,0,1,43.36,13C100,54.4,61.85,77.49,54.41,81.73Z"/></g></g></svg>