<svg xmlns="http://www.w3.org/2000/svg" viewBox="0 0 49.68 49.68"><defs><style>.cls-1{fill:#fff;}</style></defs><title>instagram</title><g id="Layer_2" data-name="Layer 2"><g id="Layer_1-2" data-name="Layer 1"><path class="cls-1" d="M36.23,0H13.45A13.46,13.46,0,0,0,0,13.45V36.23A13.46,13.46,0,0,0,13.45,49.68H36.23A13.46,13.46,0,0,0,49.68,36.23V13.45A13.46,13.46,0,0,0,36.23,0M24.84,38.42A13.58,13.58,0,1,1,38.42,24.84,13.6,13.6,0,0,1,24.84,38.42m13.91-24a4,4,0,1,1,4-4,4,4,0,0,1-4,4"/><path class="cls-1" d="M24.84,14.17A10.67,10.67,0,1,0,35.51,24.84,10.68,10.68,0,0,0,24.84,14.17"/></g></g></svg>