<svg xmlns="http://www.w3.org/2000/svg" viewBox="0 0 52 49.7"><defs><style>.cls-1{fill:#fff;}</style></defs><title>linkedin</title><g id="Layer_2" data-name="Layer 2"><g id="Layer_1-2" data-name="Layer 1"><path class="cls-1" d="M6.31,0C2.49,0,0,2.5,0,5.8s2.42,5.79,6.16,5.79h.07c3.89,0,6.31-2.57,6.31-5.79S10.12,0,6.31,0"/><rect class="cls-1" x="0.66" y="16.17" width="11.15" height="33.54"/><path class="cls-1" d="M39.17,15.38c-6,0-10,5.65-10,5.65V16.17H18V49.7H29.12V31a7.63,7.63,0,0,1,.37-2.72,6.1,6.1,0,0,1,5.72-4.08c4,0,5.65,3.07,5.65,7.58V49.7H52V30.47c0-10.3-5.5-15.09-12.83-15.09"/></g></g></svg>