<svg xmlns="http://www.w3.org/2000/svg" viewBox="0 0 505.05 200.48"><defs><style>.cls-1{fill:#231f20;}</style></defs><title>logo-black_1</title><g id="Layer_2" data-name="Layer 2"><g id="Layer_1-2" data-name="Layer 1"><path class="cls-1" d="M62.8,130.92a25.45,25.45,0,0,1-14.15,3.84,29.12,29.12,0,0,1-13.82-3.08,25.68,25.68,0,0,1-9.4-8.44A39.21,39.21,0,0,1,20,110.42a71.93,71.93,0,0,1-1.69-16.22H78.51V88.13a53.13,53.13,0,0,0-2.08-15.18,34,34,0,0,0-6.3-12.14,30.31,30.31,0,0,0-11.52-8.56,42.17,42.17,0,0,0-17-3.12,37.78,37.78,0,0,0-17.47,4,40,40,0,0,0-13,10.53A48.84,48.84,0,0,0,2.82,79,54.91,54.91,0,0,0,0,96.31,65.54,65.54,0,0,0,2.63,115a44.72,44.72,0,0,0,8,15.46,37.64,37.64,0,0,0,13.59,10.48,44.75,44.75,0,0,0,19.21,3.87,38.54,38.54,0,0,0,22-6.44,46.46,46.46,0,0,0,15.3-17.29l-6.45-4q-5.53,10-11.47,13.82M25.29,64.14q6.43-8,16.1-8a15.78,15.78,0,0,1,9.47,2.66,18.79,18.79,0,0,1,5.82,6.88,34.31,34.31,0,0,1,2.81,9.81,77.4,77.4,0,0,1,.86,11h-42q.56-14.31,6.94-22.33"/><path class="cls-1" d="M94.09,132.33a6.65,6.65,0,0,1-3.82,2.89,17.13,17.13,0,0,1-3.92.74l-4.37.36v6.07h43.85v-6.07a23.44,23.44,0,0,1-4.3-.69,30.55,30.55,0,0,1-3.93-1.33,7.33,7.33,0,0,1-3.89-3.13,10.5,10.5,0,0,1-1.23-5.33v-74l-1.29-1.28-32.06,2v6.07a38.29,38.29,0,0,1,6.09,1,17.26,17.26,0,0,1,5.07,1.89A12,12,0,0,1,94,65.62,11.15,11.15,0,0,1,95.32,71v56a10.3,10.3,0,0,1-1.23,5.37"/><path class="cls-1" d="M102.34,27.87A11,11,0,0,0,110.86,24a13.44,13.44,0,0,0,3.44-9.15,11.56,11.56,0,0,0-3.36-8.23A11.35,11.35,0,0,0,102.34,3,10.74,10.74,0,0,0,94.17,6.8a12.67,12.67,0,0,0-3.44,8.83,12.19,12.19,0,0,0,3.44,8.52,10.81,10.81,0,0,0,8.16,3.72"/><path class="cls-1" d="M205.49,133A27.45,27.45,0,0,0,197.7,128a24.26,24.26,0,0,0-8.52-2c-2-.05-5.3-.24-10-.55s-8.39-.48-11.09-.55c-2.52-.05-5-.15-7.32-.28a28.73,28.73,0,0,1-6.22-.93,10,10,0,0,1-4.71-2.43,6.75,6.75,0,0,1-1.93-5.2,6.49,6.49,0,0,1,2.31-5.25,14.4,14.4,0,0,1,4.43-2.66h11.15a33.85,33.85,0,0,0,22.62-8.28q9.73-8.29,9.73-20.24a28.36,28.36,0,0,0-1.66-9.39,26.91,26.91,0,0,0-5.06-8.74v-.56h21.37V52.06h-31.7c-2.82-.85-5.61-1.56-8.34-2.11a41.44,41.44,0,0,0-8.25-.83q-15,0-24.64,8.28a26.64,26.64,0,0,0-9.62,21.16,24.31,24.31,0,0,0,4.87,15,35.63,35.63,0,0,0,13.73,10.63v1.38q-7,2.95-10.46,7a13.69,13.69,0,0,0-3.46,9,13,13,0,0,0,1.49,6.49,15.5,15.5,0,0,0,3.87,4.55,22,22,0,0,0,5.07,2.9,57.53,57.53,0,0,0,5.72,2.07v1.29q-11.43.46-18.79,5.89a17.37,17.37,0,0,0-7.37,14.81q0,11.59,10.22,17.62t30.88,6a80.11,80.11,0,0,0,21.18-2.39,48,48,0,0,0,14.76-6.72,27.54,27.54,0,0,0,8.66-10,27.25,27.25,0,0,0,2.85-12.28,25.09,25.09,0,0,0-2.13-11,26.68,26.68,0,0,0-5.79-7.91m-57.4-54.36a48.85,48.85,0,0,1,.78-8.78,21.56,21.56,0,0,1,2.62-7.31,13.73,13.73,0,0,1,5-5.11,14.37,14.37,0,0,1,7.4-1.79A14.1,14.1,0,0,1,176.24,62c2.9,4.27,4.37,10,4.37,17.15,0,6.5-1.44,11.89-4.29,16.14a13.81,13.81,0,0,1-12.21,6.4q-7.1,0-11.57-6.44t-4.46-16.65M190.51,171q-7.78,5.2-21.33,5.21a49.67,49.67,0,0,1-13.27-1.53,26.26,26.26,0,0,1-8.65-3.9,14.54,14.54,0,0,1-4.81-5.43,14.29,14.29,0,0,1-1.38-6.16,16.66,16.66,0,0,1,4.2-11.74q4.19-4.54,14.13-6.48,10.6,0,18.6.46c5.36.31,8.88.58,10.61.83a12.17,12.17,0,0,1,7.28,4.51,14,14,0,0,1,2.39,8.46q0,10.59-7.79,15.77"/><path class="cls-1" d="M281.23,132.32a6.64,6.64,0,0,1-3.82,2.9,18,18,0,0,1-4.23.74c-1.73.12-3.29.24-4.71.36v6.07h44.7v-6.07a26.8,26.8,0,0,1-4.49-.6,31.57,31.57,0,0,1-3.86-1.23,7.61,7.61,0,0,1-3.85-3.08,10.18,10.18,0,0,1-1.16-5.2V79q0-14.44-6.54-22.13t-18.74-7.68a36.13,36.13,0,0,0-10.67,1.47,35,35,0,0,0-8.25,3.68A43.84,43.84,0,0,0,249,59.29q-2.5,2.35-5.54,5.38h-.36V1.38L241.84,0,208.22,2V7.91c1.72.13,4,.36,6.76.69s4.74.91,5.85,1.7A10.84,10.84,0,0,1,224.56,15,14.89,14.89,0,0,1,226,21.26V126.94a10.1,10.1,0,0,1-1.29,5.39,6.77,6.77,0,0,1-3.83,2.9,20.7,20.7,0,0,1-3.85.69q-2.29.23-4.39.41v6.07h44.51v-6.07a34.81,34.81,0,0,1-4.76-.64,21,21,0,0,1-4.19-1.38,8,8,0,0,1-3.82-3.13,9.66,9.66,0,0,1-1.24-5.15V73.86c.61-1,1.47-2.32,2.57-3.86a22.26,22.26,0,0,1,4.8-4.6,33.18,33.18,0,0,1,7.35-3.72,25.53,25.53,0,0,1,8.91-1.52A14.22,14.22,0,0,1,277.9,65.4q4.59,5.24,4.58,14.9v46.64a10.33,10.33,0,0,1-1.25,5.38"/><path class="cls-1" d="M370.79,131.73a30.42,30.42,0,0,1-6.31,1.06c-3,.27-5.24.41-6.77.41a19,19,0,0,1-7.92-1.38,9.49,9.49,0,0,1-4.41-4,17.49,17.49,0,0,1-2-6.67,91.48,91.48,0,0,1-.41-9.52V60.89h25.88V52.06H342.79V23.82H326V52.06H309.24v8.83h16.42v61.45q0,10.49,4.66,16.24t16.08,5.74a43.66,43.66,0,0,0,13.08-1.7q5.34-1.7,11.33-4.18Z"/><path class="cls-1" d="M437.83,73.31Q449.65,68,455.71,59.65A29.35,29.35,0,0,0,461.79,42a30.54,30.54,0,0,0-11-24q-11-9.57-28.81-9.57T391.44,18.58Q378.69,28.7,378.69,43.7a28.86,28.86,0,0,0,5.8,17.66q5.8,7.83,17.52,14.35c-9.47,3.68-16.59,8.17-21.43,13.48s-7.24,11.91-7.24,19.82a32.7,32.7,0,0,0,12.26,26.31q12.26,10.21,32.62,10.21,21.75,0,35.1-11.13t13.36-26.59q0-12.14-6.77-20c-4.5-5.28-11.88-10.1-22.07-14.45m-40.9-34a23,23,0,0,1,6.63-16.78c4.42-4.51,10.12-6.76,17-6.76s12.63,2.34,17.09,7,6.68,10.77,6.68,18.26a44.79,44.79,0,0,1-3,17.3,25.22,25.22,0,0,1-10,11.69Q412,62.37,404.48,55.65a21.09,21.09,0,0,1-7.55-16.37m43.86,91.53q-7.45,7.35-20.18,7.36-13.26,0-21.24-8.33t-8-21.85a33.81,33.81,0,0,1,4.16-16.87q4.12-7.41,13-12.2,9.4,4,17.45,7.78A69.48,69.48,0,0,1,438.57,94a26.9,26.9,0,0,1,7.2,8,20.29,20.29,0,0,1,2.48,10.16q0,11.32-7.46,18.68"/><path class="cls-1" d="M501.33,122.94a12.62,12.62,0,0,0-21.52,8.88,11.85,11.85,0,0,0,3.73,8.79,12.71,12.71,0,0,0,17.78,0,11.82,11.82,0,0,0,3.73-8.79,12.1,12.1,0,0,0-3.73-8.88"/><path class="cls-1" d="M269.38,170.8a4.52,4.52,0,0,0-2,.76,3.81,3.81,0,0,0-1.53,2l-2.05,6.05q-1,2.86-2.16,6.42-.39,1.13-.79,2.43t-.73,2.5h-1.85l-5.78-15.79L246.72,191h-1.79q-1.63-4.82-3.18-9.57T239,173.14a3,3,0,0,0-1.33-1.61,4.81,4.81,0,0,0-1.89-.69v-1.43h9.56v1.52a7.13,7.13,0,0,0-1.55.24c-.56.15-.84.38-.84.72a1.84,1.84,0,0,0,.08.37c.05.19.11.39.19.61q.69,2.28,1.57,5.09t2.27,7.3l5.46-15.4h2.1L260.2,185q.93-2.91,1.86-5.63t1.62-5.11q.15-.56.29-1a3.21,3.21,0,0,0,.14-.92.91.91,0,0,0-.35-.69,2.85,2.85,0,0,0-.85-.5,4.57,4.57,0,0,0-.94-.26,5,5,0,0,0-.75-.09v-1.39h8.15Z"/><path class="cls-1" d="M289.3,185.79a11,11,0,0,1-3.61,4.09,9.08,9.08,0,0,1-5.19,1.52,10.55,10.55,0,0,1-4.53-.91,8.88,8.88,0,0,1-3.2-2.48,10.53,10.53,0,0,1-1.88-3.65,15.45,15.45,0,0,1-.62-4.41,13,13,0,0,1,.66-4.1,11.57,11.57,0,0,1,1.94-3.62,9.42,9.42,0,0,1,3.07-2.49,8.85,8.85,0,0,1,4.12-.94,9.92,9.92,0,0,1,4,.74,7.16,7.16,0,0,1,2.72,2,8.07,8.07,0,0,1,1.49,2.87,12.57,12.57,0,0,1,.49,3.58v1.43H274.59a16.87,16.87,0,0,0,.4,3.83,9.18,9.18,0,0,0,1.27,3,6.05,6.05,0,0,0,2.21,2,6.85,6.85,0,0,0,3.26.73,6,6,0,0,0,3.34-.91,9,9,0,0,0,2.7-3.27Zm-4.8-8.17a17.65,17.65,0,0,0-.21-2.6,8,8,0,0,0-.66-2.32,4.41,4.41,0,0,0-1.37-1.62,3.73,3.73,0,0,0-2.24-.63,4.66,4.66,0,0,0-3.79,1.9,8.83,8.83,0,0,0-1.64,5.27Z"/><path class="cls-1" d="M313.53,180.1a11.47,11.47,0,0,1-3,8.1,9.36,9.36,0,0,1-7.06,3.28,11.33,11.33,0,0,1-3.47-.54,14.63,14.63,0,0,1-3.2-1.46l-1.61,2.5-1.35-.3q.11-1.61.15-3.87t0-4.37V162.22a3.53,3.53,0,0,0-.34-1.48,2.37,2.37,0,0,0-.86-1.07,3.47,3.47,0,0,0-1.38-.42c-.65-.09-1.16-.15-1.55-.19v-1.39l7.87-.48.3.33v14.13l.15,0a9.25,9.25,0,0,1,2.95-2.15,7.64,7.64,0,0,1,3.14-.72,8.31,8.31,0,0,1,6.61,3.13,12.18,12.18,0,0,1,2.65,8.15m-4.54.15a16.1,16.1,0,0,0-.35-3.28,9.35,9.35,0,0,0-1.09-2.91,6.07,6.07,0,0,0-1.93-2,5.12,5.12,0,0,0-2.87-.78,5.66,5.66,0,0,0-2.66.6,7.28,7.28,0,0,0-2.05,1.62v12.47a5.28,5.28,0,0,0,.51,1.22,5.43,5.43,0,0,0,2.51,2.31,4.81,4.81,0,0,0,2,.38,4.9,4.9,0,0,0,4.28-2.56,13,13,0,0,0,1.63-7"/><path class="cls-1" d="M347.74,190.44q-1,.37-1.79.6a6.14,6.14,0,0,1-1.75.23,4.27,4.27,0,0,1-2.71-.79,3.66,3.66,0,0,1-1.29-2.31h-.13a10.6,10.6,0,0,1-3,2.39,8.5,8.5,0,0,1-3.9.82,5.52,5.52,0,0,1-4-1.48,5.09,5.09,0,0,1-1.55-3.87,6.58,6.58,0,0,1,.35-2.22,5.26,5.26,0,0,1,1-1.76,5.2,5.2,0,0,1,1.43-1.16,12.6,12.6,0,0,1,1.67-.82q1-.37,4-1.37a29.62,29.62,0,0,0,4-1.56V175a9.23,9.23,0,0,0-.12-1.08,4.56,4.56,0,0,0-.51-1.52,4.33,4.33,0,0,0-1.23-1.4,3.67,3.67,0,0,0-2.25-.6,5,5,0,0,0-1.86.34,3.39,3.39,0,0,0-1.21.71,5.91,5.91,0,0,0,.21,1.28,6.64,6.64,0,0,1,.21,1.57,1.87,1.87,0,0,1-.68,1.39,2.7,2.7,0,0,1-1.9.63,1.78,1.78,0,0,1-1.6-.77,3,3,0,0,1,.2-3.64,7.09,7.09,0,0,1,1.84-1.63,9.94,9.94,0,0,1,2.37-1,9.28,9.28,0,0,1,2.72-.42,17.75,17.75,0,0,1,3.18.25,5.83,5.83,0,0,1,2.47,1.07,5,5,0,0,1,1.68,2.18,9.32,9.32,0,0,1,.58,3.55q0,3.11-.06,5.51t-.07,5.25a2.66,2.66,0,0,0,.29,1.35,2.38,2.38,0,0,0,.9.85,2.23,2.23,0,0,0,1,.22l1.44,0ZM340.15,179q-1.85.54-3.24,1.07a13.15,13.15,0,0,0-2.59,1.31,5.88,5.88,0,0,0-1.72,1.75,4.46,4.46,0,0,0-.63,2.41,3.4,3.4,0,0,0,.95,2.66,3.45,3.45,0,0,0,2.4.85,4.92,4.92,0,0,0,2.72-.75,7.9,7.9,0,0,0,2-1.77Z"/><path class="cls-1" d="M368.23,188.62a6.38,6.38,0,0,1,1.37,1.87,6,6,0,0,1,.5,2.59,6.34,6.34,0,0,1-2.72,5.26,11.34,11.34,0,0,1-3.48,1.59,18.84,18.84,0,0,1-5,.57q-4.87,0-7.28-1.42a4.55,4.55,0,0,1-2.41-4.16,4.11,4.11,0,0,1,1.74-3.5,7.82,7.82,0,0,1,4.43-1.39v-.3a13.46,13.46,0,0,1-1.35-.49,5.24,5.24,0,0,1-1.19-.69,3.7,3.7,0,0,1-.91-1.07,3.1,3.1,0,0,1-.35-1.53,3.22,3.22,0,0,1,.81-2.12,6.44,6.44,0,0,1,2.47-1.66v-.33a8.39,8.39,0,0,1-3.24-2.51,5.74,5.74,0,0,1-1.15-3.55,6.3,6.3,0,0,1,2.27-5,8.58,8.58,0,0,1,5.81-2,9.74,9.74,0,0,1,1.95.19q1,.2,2,.5h7.48v2.09h-5v.13a6.29,6.29,0,0,1,1.2,2.06,6.75,6.75,0,0,1,.39,2.22,6.06,6.06,0,0,1-2.29,4.78,8,8,0,0,1-5.34,2h-2.63a3.38,3.38,0,0,0-1,.63,1.54,1.54,0,0,0-.54,1.24,1.59,1.59,0,0,0,.46,1.23,2.4,2.4,0,0,0,1.11.58,6.82,6.82,0,0,0,1.47.22l1.73.06q1,0,2.62.13t2.36.13a5.71,5.71,0,0,1,2,.48,6.49,6.49,0,0,1,1.84,1.19m-1.69,5.26a3.33,3.33,0,0,0-.57-2,2.86,2.86,0,0,0-1.72-1.07q-.61-.09-2.5-.2t-4.39-.11A6,6,0,0,0,354,192a3.93,3.93,0,0,0-1,2.77,3.38,3.38,0,0,0,.33,1.46,3.43,3.43,0,0,0,1.13,1.28,6.25,6.25,0,0,0,2,.92,11.77,11.77,0,0,0,3.13.36,9,9,0,0,0,5-1.23,4.18,4.18,0,0,0,1.84-3.73m-4.17-18a7.08,7.08,0,0,0-1-4.05,3.32,3.32,0,0,0-2.9-1.51,3.43,3.43,0,0,0-1.75.42,3.29,3.29,0,0,0-1.18,1.21,5.07,5.07,0,0,0-.62,1.73,11.54,11.54,0,0,0-.18,2.08,6.77,6.77,0,0,0,1.05,3.93,3.19,3.19,0,0,0,2.73,1.52,3.26,3.26,0,0,0,2.88-1.51,6.71,6.71,0,0,0,1-3.81"/><path class="cls-1" d="M391.57,185.79a11,11,0,0,1-3.61,4.09,9.08,9.08,0,0,1-5.19,1.52,10.55,10.55,0,0,1-4.53-.91A8.88,8.88,0,0,1,375,188a10.53,10.53,0,0,1-1.88-3.65,15.45,15.45,0,0,1-.62-4.41,13,13,0,0,1,.66-4.1,11.57,11.57,0,0,1,1.94-3.62,9.42,9.42,0,0,1,3.07-2.49,8.85,8.85,0,0,1,4.12-.94,9.92,9.92,0,0,1,4,.74,7.16,7.16,0,0,1,2.72,2,8.07,8.07,0,0,1,1.49,2.87A12.57,12.57,0,0,1,391,178v1.43H376.85a16.87,16.87,0,0,0,.4,3.83,9.18,9.18,0,0,0,1.27,3,6.05,6.05,0,0,0,2.21,2A6.85,6.85,0,0,0,384,189a6,6,0,0,0,3.34-.91,9,9,0,0,0,2.7-3.27Zm-4.8-8.17a17.65,17.65,0,0,0-.21-2.6,8,8,0,0,0-.66-2.32,4.41,4.41,0,0,0-1.37-1.62,3.73,3.73,0,0,0-2.24-.63,4.66,4.66,0,0,0-3.79,1.9,8.83,8.83,0,0,0-1.64,5.27Z"/><path class="cls-1" d="M417.71,190.83H407.23V189.4l1.1-.09a4.12,4.12,0,0,0,1-.17,1.57,1.57,0,0,0,.9-.69,2.45,2.45,0,0,0,.29-1.27v-11a5.2,5.2,0,0,0-1.08-3.52,3.35,3.35,0,0,0-2.62-1.24,6,6,0,0,0-2.11.36,7.49,7.49,0,0,0-1.7.88,4.84,4.84,0,0,0-1.14,1.08,9.68,9.68,0,0,0-.62.92V187a2.23,2.23,0,0,0,.3,1.22,2,2,0,0,0,.91.74,4.29,4.29,0,0,0,1,.33,8.8,8.8,0,0,0,1.1.15v1.43H394V189.4l1-.09a4,4,0,0,0,.92-.17,1.56,1.56,0,0,0,.9-.68,2.43,2.43,0,0,0,.29-1.27V174a3,3,0,0,0-.32-1.36,2.7,2.7,0,0,0-.88-1,3,3,0,0,0-1-.38,8.6,8.6,0,0,0-1.22-.16v-1.43l7.13-.48.3.3v3h.11q.52-.52,1.3-1.25a11.38,11.38,0,0,1,1.48-1.18,7.75,7.75,0,0,1,1.91-.87,8.36,8.36,0,0,1,2.5-.35,5.42,5.42,0,0,1,4.57,1.92,8.14,8.14,0,0,1,1.49,5.12V187a2.51,2.51,0,0,0,.26,1.23,1.72,1.72,0,0,0,.89.73,5.73,5.73,0,0,0,.9.31,7,7,0,0,0,1.05.13Z"/><path class="cls-1" d="M430.25,191.4a9,9,0,0,1-7.28-3.09A13.89,13.89,0,0,1,421,175.81a11.65,11.65,0,0,1,2.05-3.58,9.59,9.59,0,0,1,3.21-2.49,9.47,9.47,0,0,1,4.22-.95,8.22,8.22,0,0,1,5.13,1.51,4.91,4.91,0,0,1,2,4.12,3.55,3.55,0,0,1-.52,1.92,1.87,1.87,0,0,1-1.72.84,2.83,2.83,0,0,1-2-.65,1.93,1.93,0,0,1-.71-1.45,8.12,8.12,0,0,1,.26-2,11.22,11.22,0,0,0,.31-1.51,1.92,1.92,0,0,0-1.16-.9,5.84,5.84,0,0,0-1.66-.23,4.58,4.58,0,0,0-2,.44,5.11,5.11,0,0,0-1.83,1.64,8.8,8.8,0,0,0-1.3,2.93,17.06,17.06,0,0,0-.5,4.41,11.24,11.24,0,0,0,1.79,6.6,5.49,5.49,0,0,0,4.7,2.55,5.86,5.86,0,0,0,3.53-1,10,10,0,0,0,2.64-3.08l1.39.91a11.23,11.23,0,0,1-3.78,4.06,8.88,8.88,0,0,1-4.85,1.5"/><path class="cls-1" d="M438.92,197.83a2.59,2.59,0,0,1,.6-1.77,1.89,1.89,0,0,1,1.49-.68,2.57,2.57,0,0,1,1.19.26,3.34,3.34,0,0,1,.89.67,5.64,5.64,0,0,1,.69.88q.37.56.59.93a8.65,8.65,0,0,0,2.6-3.06,24.78,24.78,0,0,0,2.18-4.34q-2.06-5.15-3.74-9.21t-3.5-8.41a3.12,3.12,0,0,0-1.39-1.55,5.75,5.75,0,0,0-2-.71v-1.43h9.78v1.52a7,7,0,0,0-1.57.27q-.91.25-.91.58a1.63,1.63,0,0,0,.1.43q.1.3.23.63.82,2.15,2.51,6.2t2.62,6.48l2-4.81q1.05-2.49,2.36-5.87l.44-1.14a3.55,3.55,0,0,0,.28-1.25c0-.38-.33-.73-1-1.05a5.88,5.88,0,0,0-1.88-.6v-1.39h8v1.35a5.36,5.36,0,0,0-1.72.75,3.92,3.92,0,0,0-1.59,1.81q-2.58,6-4.6,10.93t-3.05,7.26a40.2,40.2,0,0,1-2.44,4.75,14.24,14.24,0,0,1-2.1,2.68,6.11,6.11,0,0,1-1.82,1.23,4.63,4.63,0,0,1-1.68.32,4,4,0,0,1-2.66-.8,2.36,2.36,0,0,1-1-1.85"/></g></g></svg>