<svg xmlns="http://www.w3.org/2000/svg" viewBox="0 0 111.23 85.51"><defs><style>.cls-1{fill:#fff;}</style></defs><title>Asset 20</title><g id="Layer_2" data-name="Layer 2"><g id="Layer_1-2" data-name="Layer 1"><path class="cls-1" d="M111.23,77.53v0a1.67,1.67,0,0,0,0-.19v0a1.54,1.54,0,0,0,0-.17v0l-.06-.14v0l-8.71-17.19V3.15A3.16,3.16,0,0,0,99.19,0H12A3.16,3.16,0,0,0,8.89,3.15V59.71L.18,76.89v0l-.06.14,0,0a1.55,1.55,0,0,0,0,.17v0a1.54,1.54,0,0,0,0,.19v0s0,.07,0,.1v4.13a3.75,3.75,0,0,0,3.75,3.75H107.49a3.75,3.75,0,0,0,3.75-3.75V77.63s0-.07,0-.1M12.15,3.26H99.08V58.47H12.15Zm-.63,58.46H99.71L107,76H71.15l-1.8-6.51a3.08,3.08,0,0,0-3-2.25H44.84a3.08,3.08,0,0,0-3,2.25L40.08,76H4.28ZM67.77,76H43.46L45,70.49H66.25ZM108,81.76a.49.49,0,0,1-.49.49H3.75a.49.49,0,0,1-.49-.49v-2.5H108Z"/><path class="cls-1" d="M95.61,9.29a2.56,2.56,0,0,0-2.55-2.55H18.18a2.56,2.56,0,0,0-2.55,2.55V52.43A2.56,2.56,0,0,0,18.18,55H93.05a2.56,2.56,0,0,0,2.55-2.55V35.21h0ZM92.35,51.73H18.89V10H92.35V51.73Z"/></g></g></svg>